<svg width="68" height="59" viewBox="0 0 68 59" fill="none" xmlns="http://www.w3.org/2000/svg">
<path d="M20.3726 5.68635C19.6586 5.05169 18.9446 4.41704 18.9338 4.40743C18.923 4.39781 19.637 5.03246 19.6478 5.04208C21.3599 6.56393 16.6536 2.56597 14.7316 1.64284C12.3272 0.487995 10.4417 1.0779 7.42352 1.93613C5.11537 2.59244 3.67209 4.43627 2.288 6.41836C0.327012 9.22658 1.01809 12.1218 1.67859 14.3335C2.97854 16.3384 4.50147 17.7832 5.44083 18.3632C5.9042 18.6258 6.34052 18.8241 7.39106 19.3891" stroke="#F5EFEB" stroke-width="2" stroke-linecap="round"/>
<path d="M20.5039 5.39323C22.5657 4.47211 28.6601 3.44348 30.1566 3.28361C32.2423 3.0608 35.1004 3.20068 38.0801 3.54024C40.4793 3.81364 43.947 4.91712 47.8114 6.21828C49.2562 6.72612 49.6529 6.92445 50.0159 7.08612C50.3789 7.24779 50.6962 7.36679 51.504 7.72979" stroke="#F5EFEB" stroke-width="2" stroke-linecap="round"/>
<path d="M50.3333 7.28712C51.7537 5.15642 55.095 3.0059 57.8446 2.60203C60.0495 2.27815 62.7902 3.67661 64.4591 5.07874C66.7596 7.01141 66.4082 11.1891 66.089 13.7541C65.7687 14.9778 65.2086 16.1798 64.5703 17.0782C64.1701 17.5801 62.5058 19.2215 61.9336 19.8345" stroke="#F5EFEB" stroke-width="2" stroke-linecap="round"/>
<path d="M10.2607 20.6619C10.4483 20.4744 10.5536 20.22 10.5536 19.9548C10.5536 19.6896 10.4483 19.4352 10.2607 19.2477C10.0732 19.0602 9.81884 18.9548 9.55362 18.9548C9.28841 18.9548 9.03405 19.0602 8.84652 19.2477C8.84652 19.2477 8.84652 19.2477 8.84652 19.2477C8.82021 19.2708 8.61149 19.4463 8.48168 19.5511C8.33678 19.669 8.18965 19.787 8.04296 19.9029C8.04004 19.9052 8.03712 19.9075 8.03421 19.9098C8.03741 19.9073 8.04009 19.9051 8.05331 19.8951C8.06168 19.8891 8.06643 19.8845 8.10452 19.8591C8.1356 19.8431 8.1224 19.8328 8.30896 19.7562C8.36655 19.7382 8.43458 19.7035 8.63465 19.6951C8.73523 19.6947 8.88426 19.6997 9.08327 19.792C9.28075 19.8778 9.50303 20.1024 9.58431 20.3293C9.73801 20.8 9.60209 20.9808 9.57476 21.0839C9.53021 21.1864 9.49978 21.2277 9.47721 21.262C9.33216 21.4513 9.35792 21.3989 9.3361 21.4257C9.32466 21.4364 9.32008 21.4404 9.31616 21.4439C9.30824 21.4508 9.308 21.451 9.30811 21.4509C9.30758 21.4514 9.3071 21.4518 9.30666 21.4522C9.30577 21.4529 9.30504 21.4535 9.30441 21.4541C9.30315 21.4552 9.30227 21.4559 9.30156 21.4565C9.30018 21.4577 9.29948 21.4583 9.29903 21.4587C9.29814 21.4594 9.29843 21.4592 9.2985 21.4591C9.29876 21.4589 9.29951 21.4583 9.30055 21.4574C9.30234 21.4559 9.30413 21.4544 9.30659 21.4524C9.31054 21.4491 9.31585 21.4447 9.31996 21.4413C9.32952 21.4334 9.3388 21.4257 9.34796 21.4181C9.36675 21.4026 9.3859 21.3867 9.4048 21.3711C9.44263 21.3399 9.48082 21.3083 9.51881 21.277C9.59373 21.2151 9.67478 21.1482 9.74393 21.0912C9.74461 21.0906 9.74528 21.09 9.74596 21.0895C9.78298 21.0592 9.80928 21.0382 9.8323 21.0204C9.84608 21.0098 9.85453 21.0037 9.85253 21.0052C9.85266 21.0048 9.84688 21.0101 9.81177 21.0309C9.79329 21.0415 9.76825 21.0563 9.71645 21.079C9.69101 21.0881 9.73332 21.0779 9.59807 21.1212C9.4933 21.1297 9.24584 21.285 8.73627 20.9645C8.49849 20.7977 8.36281 20.4979 8.34164 20.3099C8.31485 20.1147 8.34225 19.9995 8.36082 19.919C8.38132 19.8423 8.38761 19.8309 8.39985 19.7982C8.48643 19.6024 8.50614 19.609 8.51384 19.5917C8.51941 19.5844 8.52086 19.5828 8.51992 19.5839C8.51736 19.587 8.50708 19.599 8.49788 19.6093C8.47665 19.6333 8.4488 19.6636 8.42207 19.6923C8.31086 19.8114 8.17764 19.9485 8.05744 20.0718C7.80445 20.3309 7.54725 20.5909 7.29091 20.8506C6.77791 21.3703 6.26053 21.8953 5.74816 22.4261C5.06558 23.14 4.39271 23.8263 3.72048 24.6631C3.46904 24.9859 3.26543 25.3087 3.07829 25.6323C1.59093 28.4006 0.73298 31.1651 0.133465 34.1889C0.0735735 34.5478 0.0413613 34.9039 0.0274308 35.2525C-0.0162309 36.411 0.124118 37.4806 0.181071 38.4788C0.20114 38.819 0.240023 39.1569 0.296697 39.4913C0.554563 41.0341 1.19244 42.3864 1.68959 43.6357C1.80577 43.9263 1.93119 44.2117 2.06441 44.4919C2.95388 46.3536 4.15694 47.9892 5.46407 49.4885C5.65022 49.7014 5.8405 49.9106 6.03523 50.1158C7.47974 51.6552 9.23505 52.9382 11.0628 53.9193C11.2833 54.0397 11.5046 54.1586 11.7266 54.2762C14.7277 55.8587 17.8842 57.2277 21.2595 58.0245C21.4789 58.0758 21.6977 58.122 21.9163 58.1645C24.2841 58.608 26.6004 58.7415 28.9117 58.8733C29.1018 58.8835 29.2914 58.8928 29.4813 58.9012C31.8098 59.0047 34.1448 58.9808 36.4735 58.8169C36.6409 58.8051 36.801 58.7932 36.9676 58.7802C39.3807 58.5742 41.7413 58.3312 44.2141 57.6085C44.3398 57.5675 44.4718 57.5253 44.6033 57.483C46.554 56.8614 48.4965 56.1857 50.4147 55.4552C50.5332 55.41 50.6521 55.3625 50.7687 55.3138C53.4155 54.1584 55.562 52.5106 57.7313 50.9209C57.8096 50.8626 57.8873 50.803 57.9646 50.7424C61.2501 48.0348 63.2361 44.468 64.9672 40.8807C64.9971 40.8167 65.0256 40.752 65.0529 40.6865C66.2062 37.2029 65.653 34.1077 65.5235 30.9957C65.5208 30.9542 65.5179 30.9127 65.5147 30.8713C65.3923 29.3255 64.9833 27.8837 64.6336 26.5435C64.6273 26.519 64.6211 26.4945 64.6147 26.4699C64.512 26.0701 64.4028 25.675 64.2883 25.2819C64.0118 24.3413 63.7216 23.421 63.3524 22.4747L63.3321 22.4272C63.3279 22.4181 63.3237 22.4089 63.3195 22.3995C63.046 21.794 62.7868 21.145 62.534 20.4989L62.5243 20.475C62.5227 20.4712 62.5211 20.4674 62.5195 20.4636C62.3614 20.0866 62.1812 19.7216 62.0136 19.3874C61.895 19.1502 61.687 18.9698 61.4354 18.8859C61.1838 18.802 60.9092 18.8216 60.672 18.9402C60.4347 19.0588 60.2544 19.2668 60.1705 19.5184C60.0866 19.77 60.1061 20.0446 60.2247 20.2818C60.2247 20.2818 60.2247 20.2818 60.2247 20.2818C60.3932 20.6177 60.5445 20.9257 60.6764 21.2401C60.6777 21.2432 60.6791 21.2464 60.6804 21.2496L60.6707 21.2257C60.9313 21.8909 61.193 22.5495 61.499 23.2276C61.5038 23.2382 61.5086 23.2487 61.5133 23.2591L61.4931 23.2117C61.8185 24.044 62.1065 24.9488 62.3681 25.8412C62.4773 26.2161 62.5812 26.5921 62.6776 26.9673C62.6835 26.9904 62.6894 27.0134 62.6952 27.0364C63.0626 28.4326 63.4202 29.739 63.5205 31.0242C63.5231 31.0581 63.5255 31.0919 63.5277 31.1256C63.6972 34.1641 64.0625 37.459 63.2071 39.9165C63.19 39.9576 63.1725 39.9971 63.1549 40.0349C61.524 43.4529 59.526 46.8894 56.7295 49.1693C56.6649 49.2201 56.6001 49.2696 56.5354 49.3179C54.412 50.8831 52.2608 52.4901 49.9982 53.4682C49.9 53.5092 49.8009 53.5488 49.7034 53.5859C47.8177 54.3039 45.9201 54.9643 43.9921 55.5787C43.8605 55.621 43.7285 55.6632 43.5944 55.7069C41.5132 56.3193 39.1192 56.5966 36.8117 56.7863C36.6504 56.7989 36.4952 56.8104 36.3328 56.8219C34.085 56.9801 31.825 57.0035 29.5703 56.9032C29.3864 56.895 29.2028 56.886 29.0188 56.8761C26.7419 56.7483 24.4544 56.6074 22.2985 56.2014C22.1011 56.163 21.9061 56.1217 21.7145 56.077C18.5846 55.3397 15.5594 54.0378 12.6624 52.5086C12.4479 52.395 12.2341 52.2801 12.0207 52.1636C10.3155 51.245 8.79279 50.1268 7.486 48.7391C7.31055 48.5542 7.13856 48.3652 6.96971 48.1721C5.74361 46.7677 4.64556 45.2585 3.87076 43.6334C3.75457 43.3889 3.64617 43.1421 3.54664 42.8932C3.01267 41.5675 2.46626 40.3689 2.26861 39.1574C2.22373 38.8924 2.19337 38.6279 2.17759 38.3608C2.11203 37.2753 1.98747 36.2642 2.02583 35.3324C2.03702 35.0522 2.06244 34.7802 2.1062 34.518C2.62507 31.8436 3.53202 28.9831 4.81117 26.6309C4.96541 26.3633 5.12913 26.1086 5.29603 25.895C5.83727 25.2186 6.52662 24.5035 7.18723 23.815C7.68984 23.2943 8.20191 22.7746 8.71426 22.2557C8.97065 21.9958 9.22815 21.7355 9.48879 21.4687C9.61374 21.3405 9.74977 21.2008 9.88512 21.0559C9.91851 21.02 9.95446 20.9811 9.99413 20.9364C10.0123 20.9159 10.0326 20.893 10.0622 20.8572C10.099 20.7948 10.082 20.8927 10.259 20.5353C10.272 20.5008 10.2786 20.4886 10.2997 20.4095C10.3189 20.3267 10.3465 20.2095 10.3195 20.0128C10.298 19.8231 10.1617 19.5222 9.92287 19.3546C9.41117 19.0326 9.15989 19.1878 9.04959 19.1979C8.90639 19.2438 8.94965 19.2336 8.9221 19.2435C8.8638 19.269 8.83085 19.2879 8.80301 19.304C8.75231 19.3335 8.7082 19.3649 8.70011 19.3706C8.66799 19.3932 8.63985 19.4144 8.61027 19.4372C8.5631 19.4737 8.5275 19.5024 8.48001 19.5411C8.47916 19.5418 8.47831 19.5425 8.47745 19.5432C8.39486 19.6113 8.32265 19.671 8.24539 19.7347C8.20727 19.7662 8.16894 19.7979 8.13078 19.8294C8.11171 19.8452 8.09237 19.8612 8.07313 19.8771C8.06374 19.8848 8.05421 19.8927 8.04401 19.9012C8.03962 19.9048 8.03384 19.9096 8.02908 19.9136C8.02609 19.916 8.02383 19.9179 8.02085 19.9204C8.01907 19.9219 8.01741 19.9233 8.01566 19.9247C8.01488 19.9254 8.01377 19.9263 8.01136 19.9283C8.01023 19.9293 8.00895 19.9304 8.00708 19.9319C8.00614 19.9327 8.00505 19.9337 8.0036 19.9349C8.00288 19.9355 8.00206 19.9362 8.0011 19.9371C8.00062 19.9375 8.0001 19.9379 7.99953 19.9384C7.99967 19.9383 7.99927 19.9386 7.99117 19.9457C7.98717 19.9493 7.98252 19.9533 7.97104 19.964C7.94917 19.9909 7.97491 19.9386 7.82984 20.1279C7.80728 20.1621 7.77684 20.2035 7.73229 20.3059C7.70497 20.409 7.56904 20.5898 7.72275 21.0605C7.80402 21.2875 8.02631 21.512 8.22378 21.5979C8.4228 21.6902 8.57182 21.6952 8.67241 21.6947C8.87248 21.6864 8.94051 21.6517 8.9981 21.6337C9.18466 21.5571 9.17148 21.5467 9.20257 21.5307C9.24069 21.5053 9.24549 21.5007 9.25392 21.4946C9.26728 21.4846 9.27017 21.4822 9.27366 21.4794C9.27674 21.477 9.27982 21.4746 9.28291 21.4721C9.6099 21.209 9.83799 21.0423 10.2607 20.6619Z" fill="#F5EFEB"/>
</svg>
